<?xml version="1.0" encoding="us-ascii" standalone="no"?><svg xmlns="http://www.w3.org/2000/svg" xmlns:xlink="http://www.w3.org/1999/xlink" contentStyleType="text/css" height="530px" preserveAspectRatio="none" style="width:874px;height:530px;background:#FFFFFF;" version="1.1" viewBox="0 0 874 530" width="874px" zoomAndPan="magnify"><defs/><g><rect fill="#ABC4C3" height="378.7266" style="stroke:#181818;stroke-width:1.0;" width="10" x="52.5" y="91.5625"/><rect fill="#ABC4C3" height="320.4609" style="stroke:#181818;stroke-width:1.0;" width="10" x="179.5" y="120.6953"/><rect fill="#ABC4C3" height="29.1328" style="stroke:#181818;stroke-width:1.0;" width="10" x="465" y="149.8281"/><rect fill="#ABC4C3" height="29.1328" style="stroke:#181818;stroke-width:1.0;" width="10" x="537" y="208.0938"/><rect fill="#ABC4C3" height="29.1328" style="stroke:#181818;stroke-width:1.0;" width="10" x="601.5" y="266.3594"/><rect fill="#ABC4C3" height="29.1328" style="stroke:#181818;stroke-width:1.0;" width="10" x="688" y="324.625"/><rect fill="#ABC4C3" height="29.1328" style="stroke:#181818;stroke-width:1.0;" width="10" x="800" y="382.8906"/><rect fill="none" height="424.9922" style="stroke:#000000;stroke-width:1.5;" width="858" x="10" y="53.2969"/><line style="stroke:#181818;stroke-width:0.5;stroke-dasharray:5.0,5.0;" x1="57" x2="57" y1="36.2969" y2="495.2891"/><line style="stroke:#181818;stroke-width:0.5;stroke-dasharray:5.0,5.0;" x1="184.5" x2="184.5" y1="36.2969" y2="495.2891"/><line style="stroke:#181818;stroke-width:0.5;stroke-dasharray:5.0,5.0;" x1="329.5" x2="329.5" y1="36.2969" y2="495.2891"/><line style="stroke:#181818;stroke-width:0.5;stroke-dasharray:5.0,5.0;" x1="470" x2="470" y1="36.2969" y2="495.2891"/><line style="stroke:#181818;stroke-width:0.5;stroke-dasharray:5.0,5.0;" x1="542" x2="542" y1="36.2969" y2="495.2891"/><line style="stroke:#181818;stroke-width:0.5;stroke-dasharray:5.0,5.0;" x1="606" x2="606" y1="36.2969" y2="495.2891"/><line style="stroke:#181818;stroke-width:0.5;stroke-dasharray:5.0,5.0;" x1="693" x2="693" y1="36.2969" y2="495.2891"/><line style="stroke:#181818;stroke-width:0.5;stroke-dasharray:5.0,5.0;" x1="805" x2="805" y1="36.2969" y2="495.2891"/><rect fill="#E2E2F0" height="30.2969" rx="2.5" ry="2.5" style="stroke:#181818;stroke-width:0.5;" width="75" x="20" y="5"/><text fill="#000000" font-family="sans-serif" font-size="14" lengthAdjust="spacing" textLength="61" x="27" y="24.9951">Explorer</text><rect fill="#E2E2F0" height="30.2969" rx="2.5" ry="2.5" style="stroke:#181818;stroke-width:0.5;" width="75" x="20" y="494.2891"/><text fill="#000000" font-family="sans-serif" font-size="14" lengthAdjust="spacing" textLength="61" x="27" y="514.2842">Explorer</text><rect fill="#E2E2F0" height="30.2969" rx="2.5" ry="2.5" style="stroke:#181818;stroke-width:0.5;" width="158" x="105.5" y="5"/><text fill="#000000" font-family="sans-serif" font-size="14" lengthAdjust="spacing" textLength="144" x="112.5" y="24.9951">ExplorationManager</text><rect fill="#E2E2F0" height="30.2969" rx="2.5" ry="2.5" style="stroke:#181818;stroke-width:0.5;" width="158" x="105.5" y="494.2891"/><text fill="#000000" font-family="sans-serif" font-size="14" lengthAdjust="spacing" textLength="144" x="112.5" y="514.2842">ExplorationManager</text><rect fill="#E2E2F0" height="30.2969" rx="2.5" ry="2.5" style="stroke:#181818;stroke-width:0.5;" width="113" x="273.5" y="5"/><text fill="#000000" font-family="sans-serif" font-size="14" lengthAdjust="spacing" textLength="99" x="280.5" y="24.9951">IslandScanner</text><rect fill="#E2E2F0" height="30.2969" rx="2.5" ry="2.5" style="stroke:#181818;stroke-width:0.5;" width="113" x="273.5" y="494.2891"/><text fill="#000000" font-family="sans-serif" font-size="14" lengthAdjust="spacing" textLength="99" x="280.5" y="514.2842">IslandScanner</text><rect fill="#E2E2F0" height="30.2969" rx="2.5" ry="2.5" style="stroke:#181818;stroke-width:0.5;" width="70" x="435" y="5"/><text fill="#000000" font-family="sans-serif" font-size="14" lengthAdjust="spacing" textLength="56" x="442" y="24.9951">Decider</text><rect fill="#E2E2F0" height="30.2969" rx="2.5" ry="2.5" style="stroke:#181818;stroke-width:0.5;" width="70" x="435" y="494.2891"/><text fill="#000000" font-family="sans-serif" font-size="14" lengthAdjust="spacing" textLength="56" x="442" y="514.2842">Decider</text><rect fill="#E2E2F0" height="30.2969" rx="2.5" ry="2.5" style="stroke:#181818;stroke-width:0.5;" width="54" x="515" y="5"/><text fill="#000000" font-family="sans-serif" font-size="14" lengthAdjust="spacing" textLength="40" x="522" y="24.9951">Slicer</text><rect fill="#E2E2F0" height="30.2969" rx="2.5" ry="2.5" style="stroke:#181818;stroke-width:0.5;" width="54" x="515" y="494.2891"/><text fill="#000000" font-family="sans-serif" font-size="14" lengthAdjust="spacing" textLength="40" x="522" y="514.2842">Slicer</text><rect fill="#E2E2F0" height="30.2969" rx="2.5" ry="2.5" style="stroke:#181818;stroke-width:0.5;" width="55" x="579" y="5"/><text fill="#000000" font-family="sans-serif" font-size="14" lengthAdjust="spacing" textLength="41" x="586" y="24.9951">UTurn</text><rect fill="#E2E2F0" height="30.2969" rx="2.5" ry="2.5" style="stroke:#181818;stroke-width:0.5;" width="55" x="579" y="494.2891"/><text fill="#000000" font-family="sans-serif" font-size="14" lengthAdjust="spacing" textLength="41" x="586" y="514.2842">UTurn</text><rect fill="#E2E2F0" height="30.2969" rx="2.5" ry="2.5" style="stroke:#181818;stroke-width:0.5;" width="98" x="644" y="5"/><text fill="#000000" font-family="sans-serif" font-size="14" lengthAdjust="spacing" textLength="84" x="651" y="24.9951">SpecialTurn</text><rect fill="#E2E2F0" height="30.2969" rx="2.5" ry="2.5" style="stroke:#181818;stroke-width:0.5;" width="98" x="644" y="494.2891"/><text fill="#000000" font-family="sans-serif" font-size="14" lengthAdjust="spacing" textLength="84" x="651" y="514.2842">SpecialTurn</text><rect fill="#E2E2F0" height="30.2969" rx="2.5" ry="2.5" style="stroke:#181818;stroke-width:0.5;" width="106" x="752" y="5"/><text fill="#000000" font-family="sans-serif" font-size="14" lengthAdjust="spacing" textLength="92" x="759" y="24.9951">SpecialTurn2</text><rect fill="#E2E2F0" height="30.2969" rx="2.5" ry="2.5" style="stroke:#181818;stroke-width:0.5;" width="106" x="752" y="494.2891"/><text fill="#000000" font-family="sans-serif" font-size="14" lengthAdjust="spacing" textLength="92" x="759" y="514.2842">SpecialTurn2</text><rect fill="#ABC4C3" height="378.7266" style="stroke:#181818;stroke-width:1.0;" width="10" x="52.5" y="91.5625"/><rect fill="#ABC4C3" height="320.4609" style="stroke:#181818;stroke-width:1.0;" width="10" x="179.5" y="120.6953"/><rect fill="#ABC4C3" height="29.1328" style="stroke:#181818;stroke-width:1.0;" width="10" x="465" y="149.8281"/><rect fill="#ABC4C3" height="29.1328" style="stroke:#181818;stroke-width:1.0;" width="10" x="537" y="208.0938"/><rect fill="#ABC4C3" height="29.1328" style="stroke:#181818;stroke-width:1.0;" width="10" x="601.5" y="266.3594"/><rect fill="#ABC4C3" height="29.1328" style="stroke:#181818;stroke-width:1.0;" width="10" x="688" y="324.625"/><rect fill="#ABC4C3" height="29.1328" style="stroke:#181818;stroke-width:1.0;" width="10" x="800" y="382.8906"/><path d="M10,53.2969 L88,53.2969 L88,60.4297 L78,70.4297 L10,70.4297 L10,53.2969 " fill="#EEEEEE" style="stroke:#000000;stroke-width:1.5;"/><rect fill="none" height="424.9922" style="stroke:#000000;stroke-width:1.5;" width="858" x="10" y="53.2969"/><text fill="#000000" font-family="sans-serif" font-size="13" font-weight="bold" lengthAdjust="spacing" textLength="33" x="25" y="66.3638">loop</text><polygon fill="#181818" points="172.5,87.5625,182.5,91.5625,172.5,95.5625,176.5,91.5625" style="stroke:#181818;stroke-width:1.0;"/><line style="stroke:#181818;stroke-width:1.0;" x1="62.5" x2="178.5" y1="91.5625" y2="91.5625"/><text fill="#000000" font-family="sans-serif" font-size="13" lengthAdjust="spacing" textLength="85" x="69.5" y="86.4966">getDecision()</text><polygon fill="#181818" points="318,116.6953,328,120.6953,318,124.6953,322,120.6953" style="stroke:#181818;stroke-width:1.0;"/><line style="stroke:#181818;stroke-width:1.0;" x1="189.5" x2="324" y1="120.6953" y2="120.6953"/><text fill="#000000" font-family="sans-serif" font-size="13" lengthAdjust="spacing" textLength="79" x="196.5" y="115.6294">nextAction()</text><polygon fill="#181818" points="453,145.8281,463,149.8281,453,153.8281,457,149.8281" style="stroke:#181818;stroke-width:1.0;"/><line style="stroke:#181818;stroke-width:1.0;" x1="330" x2="459" y1="149.8281" y2="149.8281"/><text fill="#000000" font-family="sans-serif" font-size="13" lengthAdjust="spacing" textLength="116" x="337" y="144.7622">performDecision()</text><polygon fill="#181818" points="341,174.9609,331,178.9609,341,182.9609,337,178.9609" style="stroke:#181818;stroke-width:1.0;"/><line style="stroke:#181818;stroke-width:1.0;stroke-dasharray:2.0,2.0;" x1="335" x2="469" y1="178.9609" y2="178.9609"/><text fill="#000000" font-family="sans-serif" font-size="13" lengthAdjust="spacing" textLength="72" x="347" y="173.895">JSONObject</text><polygon fill="#181818" points="525,204.0938,535,208.0938,525,212.0938,529,208.0938" style="stroke:#181818;stroke-width:1.0;"/><line style="stroke:#181818;stroke-width:1.0;" x1="330" x2="531" y1="208.0938" y2="208.0938"/><text fill="#000000" font-family="sans-serif" font-size="13" lengthAdjust="spacing" textLength="91" x="337" y="203.0278">performSlice()</text><polygon fill="#181818" points="341,233.2266,331,237.2266,341,241.2266,337,237.2266" style="stroke:#181818;stroke-width:1.0;"/><line style="stroke:#181818;stroke-width:1.0;stroke-dasharray:2.0,2.0;" x1="335" x2="541" y1="237.2266" y2="237.2266"/><text fill="#000000" font-family="sans-serif" font-size="13" lengthAdjust="spacing" textLength="72" x="347" y="232.1606">JSONObject</text><polygon fill="#181818" points="589.5,262.3594,599.5,266.3594,589.5,270.3594,593.5,266.3594" style="stroke:#181818;stroke-width:1.0;"/><line style="stroke:#181818;stroke-width:1.0;" x1="330" x2="595.5" y1="266.3594" y2="266.3594"/><text fill="#000000" font-family="sans-serif" font-size="13" lengthAdjust="spacing" textLength="100" x="337" y="261.2935">performUTurn()</text><polygon fill="#181818" points="341,291.4922,331,295.4922,341,299.4922,337,295.4922" style="stroke:#181818;stroke-width:1.0;"/><line style="stroke:#181818;stroke-width:1.0;stroke-dasharray:2.0,2.0;" x1="335" x2="605.5" y1="295.4922" y2="295.4922"/><text fill="#000000" font-family="sans-serif" font-size="13" lengthAdjust="spacing" textLength="72" x="347" y="290.4263">JSONObject</text><polygon fill="#181818" points="676,320.625,686,324.625,676,328.625,680,324.625" style="stroke:#181818;stroke-width:1.0;"/><line style="stroke:#181818;stroke-width:1.0;" x1="330" x2="682" y1="324.625" y2="324.625"/><text fill="#000000" font-family="sans-serif" font-size="13" lengthAdjust="spacing" textLength="83" x="337" y="319.5591">specialTurn()</text><polygon fill="#181818" points="341,349.7578,331,353.7578,341,357.7578,337,353.7578" style="stroke:#181818;stroke-width:1.0;"/><line style="stroke:#181818;stroke-width:1.0;stroke-dasharray:2.0,2.0;" x1="335" x2="692" y1="353.7578" y2="353.7578"/><text fill="#000000" font-family="sans-serif" font-size="13" lengthAdjust="spacing" textLength="72" x="347" y="348.6919">JSONObject</text><polygon fill="#181818" points="788,378.8906,798,382.8906,788,386.8906,792,382.8906" style="stroke:#181818;stroke-width:1.0;"/><line style="stroke:#181818;stroke-width:1.0;" x1="330" x2="794" y1="382.8906" y2="382.8906"/><text fill="#000000" font-family="sans-serif" font-size="13" lengthAdjust="spacing" textLength="91" x="337" y="377.8247">specialTurn2()</text><polygon fill="#181818" points="341,408.0234,331,412.0234,341,416.0234,337,412.0234" style="stroke:#181818;stroke-width:1.0;"/><line style="stroke:#181818;stroke-width:1.0;stroke-dasharray:2.0,2.0;" x1="335" x2="804" y1="412.0234" y2="412.0234"/><text fill="#000000" font-family="sans-serif" font-size="13" lengthAdjust="spacing" textLength="72" x="347" y="406.9575">JSONObject</text><polygon fill="#181818" points="195.5,437.1563,185.5,441.1563,195.5,445.1563,191.5,441.1563" style="stroke:#181818;stroke-width:1.0;"/><line style="stroke:#181818;stroke-width:1.0;stroke-dasharray:2.0,2.0;" x1="189.5" x2="329" y1="441.1563" y2="441.1563"/><text fill="#000000" font-family="sans-serif" font-size="13" lengthAdjust="spacing" textLength="98" x="201.5" y="436.0903">JSON Response</text><polygon fill="#181818" points="68.5,466.2891,58.5,470.2891,68.5,474.2891,64.5,470.2891" style="stroke:#181818;stroke-width:1.0;"/><line style="stroke:#181818;stroke-width:1.0;stroke-dasharray:2.0,2.0;" x1="62.5" x2="183.5" y1="470.2891" y2="470.2891"/><text fill="#000000" font-family="sans-serif" font-size="13" lengthAdjust="spacing" textLength="98" x="74.5" y="465.2231">JSON Response</text><!--SRC=[ZPD1JiCm44NtFeKbDh38nh2g418IBAW4bGWSOEeCLP0xjco3Ulp6IOZjnWtTPMRyt_yJsKfhmvuFHccBbbSFVFW6tsfw1O8TsXNVeNz2sRgkTtt3GFhs5ppoINO5MtadRzbS6uWlJW4rjGIY02Cy-4VfYwnCEb8vom216C8qWMNGVccxBuKRpqpPSiXzLKNAkjwyRRRVA3rhy1GmTwzLAnFplaoTX_c2yH-Wx3jCvxQV7p-M9jU-IbtxneBfA2zxziF2fgRx1w06fOj5jcriBwsSaixi7Oyi9X5P574cYxWiZBWWZIZTwy0vkTW1nD_H6KqEKzPS7bzSu9IUt3-m3e7K7040]--></g></svg>