<?xml version="1.0" encoding="us-ascii" standalone="no"?><svg xmlns="http://www.w3.org/2000/svg" xmlns:xlink="http://www.w3.org/1999/xlink" contentStyleType="text/css" height="1039px" preserveAspectRatio="none" style="width:1608px;height:1039px;background:#FFFFFF;" version="1.1" viewBox="0 0 1608 1039" width="1608px" zoomAndPan="magnify"><defs/><g><rect fill="#ABC4C3" height="918.8516" style="stroke:#181818;stroke-width:1.0;" width="10" x="32.5" y="67.4297"/><rect fill="#ABC4C3" height="378.7266" style="stroke:#181818;stroke-width:1.0;" width="10" x="186.5" y="120.6953"/><rect fill="#ABC4C3" height="143.3984" style="stroke:#181818;stroke-width:1.0;" width="10" x="186.5" y="528.5547"/><rect fill="#ABC4C3" height="264.1953" style="stroke:#181818;stroke-width:1.0;" width="10" x="186.5" y="722.0859"/><rect fill="#ABC4C3" height="320.4609" style="stroke:#181818;stroke-width:1.0;" width="10" x="351.5" y="149.8281"/><rect fill="#ABC4C3" height="100.2656" style="stroke:#181818;stroke-width:1.0;" width="10" x="351.5" y="557.6875"/><rect fill="#ABC4C3" height="262.1953" style="stroke:#181818;stroke-width:1.0;" width="10" x="497" y="178.9609"/><rect fill="#ABC4C3" height="29.1328" style="stroke:#181818;stroke-width:1.0;" width="10" x="637" y="178.9609"/><rect fill="#ABC4C3" height="29.1328" style="stroke:#181818;stroke-width:1.0;" width="10" x="709" y="237.2266"/><rect fill="#ABC4C3" height="29.1328" style="stroke:#181818;stroke-width:1.0;" width="10" x="773.5" y="295.4922"/><rect fill="#ABC4C3" height="29.1328" style="stroke:#181818;stroke-width:1.0;" width="10" x="860" y="353.7578"/><rect fill="#ABC4C3" height="29.1328" style="stroke:#181818;stroke-width:1.0;" width="10" x="972" y="412.0234"/><rect fill="#ABC4C3" height="86.2656" style="stroke:#181818;stroke-width:1.0;" width="10" x="1067.5" y="557.6875"/><rect fill="#ABC4C3" height="14" style="stroke:#181818;stroke-width:1.0;" width="10" x="1159.5" y="586.8203"/><rect fill="#ABC4C3" height="14" style="stroke:#181818;stroke-width:1.0;" width="10" x="1282.5" y="629.9531"/><rect fill="#ABC4C3" height="176.7969" style="stroke:#181818;stroke-width:1.0;" width="10" x="1409" y="751.2188"/><rect fill="#ABC4C3" height="29.1328" style="stroke:#181818;stroke-width:1.0;" width="10" x="1409" y="957.1484"/><rect fill="#ABC4C3" height="29.1328" style="stroke:#181818;stroke-width:1.0;" width="10" x="1511" y="804.4844"/><rect fill="#ABC4C3" height="29.1328" style="stroke:#181818;stroke-width:1.0;" width="10" x="1566" y="862.75"/><rect fill="none" height="597.5234" style="stroke:#000000;stroke-width:1.5;" width="1221" x="144" y="82.4297"/><rect fill="none" height="133.6641" style="stroke:#000000;stroke-width:1.5;" width="247.5" x="1355" y="766.2188"/><line style="stroke:#181818;stroke-width:0.5;stroke-dasharray:5.0,5.0;" x1="37" x2="37" y1="36.2969" y2="1004.2813"/><line style="stroke:#181818;stroke-width:0.5;stroke-dasharray:5.0,5.0;" x1="191" x2="191" y1="36.2969" y2="1004.2813"/><line style="stroke:#181818;stroke-width:0.5;stroke-dasharray:5.0,5.0;" x1="356.5" x2="356.5" y1="36.2969" y2="1004.2813"/><line style="stroke:#181818;stroke-width:0.5;stroke-dasharray:5.0,5.0;" x1="501.5" x2="501.5" y1="36.2969" y2="1004.2813"/><line style="stroke:#181818;stroke-width:0.5;stroke-dasharray:5.0,5.0;" x1="642" x2="642" y1="36.2969" y2="1004.2813"/><line style="stroke:#181818;stroke-width:0.5;stroke-dasharray:5.0,5.0;" x1="714" x2="714" y1="36.2969" y2="1004.2813"/><line style="stroke:#181818;stroke-width:0.5;stroke-dasharray:5.0,5.0;" x1="778" x2="778" y1="36.2969" y2="1004.2813"/><line style="stroke:#181818;stroke-width:0.5;stroke-dasharray:5.0,5.0;" x1="865" x2="865" y1="36.2969" y2="1004.2813"/><line style="stroke:#181818;stroke-width:0.5;stroke-dasharray:5.0,5.0;" x1="977" x2="977" y1="36.2969" y2="1004.2813"/><line style="stroke:#181818;stroke-width:0.5;stroke-dasharray:5.0,5.0;" x1="1072" x2="1072" y1="36.2969" y2="1004.2813"/><line style="stroke:#181818;stroke-width:0.5;stroke-dasharray:5.0,5.0;" x1="1164" x2="1164" y1="36.2969" y2="1004.2813"/><line style="stroke:#181818;stroke-width:0.5;stroke-dasharray:5.0,5.0;" x1="1287" x2="1287" y1="36.2969" y2="1004.2813"/><line style="stroke:#181818;stroke-width:0.5;stroke-dasharray:5.0,5.0;" x1="1414" x2="1414" y1="36.2969" y2="1004.2813"/><line style="stroke:#181818;stroke-width:0.5;stroke-dasharray:5.0,5.0;" x1="1515.5" x2="1515.5" y1="36.2969" y2="1004.2813"/><line style="stroke:#181818;stroke-width:0.5;stroke-dasharray:5.0,5.0;" x1="1570.5" x2="1570.5" y1="36.2969" y2="1004.2813"/><rect fill="#E2E2F0" height="30.2969" rx="2.5" ry="2.5" style="stroke:#181818;stroke-width:0.5;" width="65" x="5" y="5"/><text fill="#000000" font-family="sans-serif" font-size="14" lengthAdjust="spacing" textLength="51" x="12" y="24.9951">Runner</text><rect fill="#E2E2F0" height="30.2969" rx="2.5" ry="2.5" style="stroke:#181818;stroke-width:0.5;" width="65" x="5" y="1003.2813"/><text fill="#000000" font-family="sans-serif" font-size="14" lengthAdjust="spacing" textLength="51" x="12" y="1023.2764">Runner</text><rect fill="#E2E2F0" height="30.2969" rx="2.5" ry="2.5" style="stroke:#181818;stroke-width:0.5;" width="75" x="154" y="5"/><text fill="#000000" font-family="sans-serif" font-size="14" lengthAdjust="spacing" textLength="61" x="161" y="24.9951">Explorer</text><rect fill="#E2E2F0" height="30.2969" rx="2.5" ry="2.5" style="stroke:#181818;stroke-width:0.5;" width="75" x="154" y="1003.2813"/><text fill="#000000" font-family="sans-serif" font-size="14" lengthAdjust="spacing" textLength="61" x="161" y="1023.2764">Explorer</text><rect fill="#E2E2F0" height="30.2969" rx="2.5" ry="2.5" style="stroke:#181818;stroke-width:0.5;" width="158" x="277.5" y="5"/><text fill="#000000" font-family="sans-serif" font-size="14" lengthAdjust="spacing" textLength="144" x="284.5" y="24.9951">ExplorationManager</text><rect fill="#E2E2F0" height="30.2969" rx="2.5" ry="2.5" style="stroke:#181818;stroke-width:0.5;" width="158" x="277.5" y="1003.2813"/><text fill="#000000" font-family="sans-serif" font-size="14" lengthAdjust="spacing" textLength="144" x="284.5" y="1023.2764">ExplorationManager</text><rect fill="#E2E2F0" height="30.2969" rx="2.5" ry="2.5" style="stroke:#181818;stroke-width:0.5;" width="113" x="445.5" y="5"/><text fill="#000000" font-family="sans-serif" font-size="14" lengthAdjust="spacing" textLength="99" x="452.5" y="24.9951">IslandScanner</text><rect fill="#E2E2F0" height="30.2969" rx="2.5" ry="2.5" style="stroke:#181818;stroke-width:0.5;" width="113" x="445.5" y="1003.2813"/><text fill="#000000" font-family="sans-serif" font-size="14" lengthAdjust="spacing" textLength="99" x="452.5" y="1023.2764">IslandScanner</text><rect fill="#E2E2F0" height="30.2969" rx="2.5" ry="2.5" style="stroke:#181818;stroke-width:0.5;" width="70" x="607" y="5"/><text fill="#000000" font-family="sans-serif" font-size="14" lengthAdjust="spacing" textLength="56" x="614" y="24.9951">Decider</text><rect fill="#E2E2F0" height="30.2969" rx="2.5" ry="2.5" style="stroke:#181818;stroke-width:0.5;" width="70" x="607" y="1003.2813"/><text fill="#000000" font-family="sans-serif" font-size="14" lengthAdjust="spacing" textLength="56" x="614" y="1023.2764">Decider</text><rect fill="#E2E2F0" height="30.2969" rx="2.5" ry="2.5" style="stroke:#181818;stroke-width:0.5;" width="54" x="687" y="5"/><text fill="#000000" font-family="sans-serif" font-size="14" lengthAdjust="spacing" textLength="40" x="694" y="24.9951">Slicer</text><rect fill="#E2E2F0" height="30.2969" rx="2.5" ry="2.5" style="stroke:#181818;stroke-width:0.5;" width="54" x="687" y="1003.2813"/><text fill="#000000" font-family="sans-serif" font-size="14" lengthAdjust="spacing" textLength="40" x="694" y="1023.2764">Slicer</text><rect fill="#E2E2F0" height="30.2969" rx="2.5" ry="2.5" style="stroke:#181818;stroke-width:0.5;" width="55" x="751" y="5"/><text fill="#000000" font-family="sans-serif" font-size="14" lengthAdjust="spacing" textLength="41" x="758" y="24.9951">UTurn</text><rect fill="#E2E2F0" height="30.2969" rx="2.5" ry="2.5" style="stroke:#181818;stroke-width:0.5;" width="55" x="751" y="1003.2813"/><text fill="#000000" font-family="sans-serif" font-size="14" lengthAdjust="spacing" textLength="41" x="758" y="1023.2764">UTurn</text><rect fill="#E2E2F0" height="30.2969" rx="2.5" ry="2.5" style="stroke:#181818;stroke-width:0.5;" width="98" x="816" y="5"/><text fill="#000000" font-family="sans-serif" font-size="14" lengthAdjust="spacing" textLength="84" x="823" y="24.9951">SpecialTurn</text><rect fill="#E2E2F0" height="30.2969" rx="2.5" ry="2.5" style="stroke:#181818;stroke-width:0.5;" width="98" x="816" y="1003.2813"/><text fill="#000000" font-family="sans-serif" font-size="14" lengthAdjust="spacing" textLength="84" x="823" y="1023.2764">SpecialTurn</text><rect fill="#E2E2F0" height="30.2969" rx="2.5" ry="2.5" style="stroke:#181818;stroke-width:0.5;" width="106" x="924" y="5"/><text fill="#000000" font-family="sans-serif" font-size="14" lengthAdjust="spacing" textLength="92" x="931" y="24.9951">SpecialTurn2</text><rect fill="#E2E2F0" height="30.2969" rx="2.5" ry="2.5" style="stroke:#181818;stroke-width:0.5;" width="106" x="924" y="1003.2813"/><text fill="#000000" font-family="sans-serif" font-size="14" lengthAdjust="spacing" textLength="92" x="931" y="1023.2764">SpecialTurn2</text><rect fill="#E2E2F0" height="30.2969" rx="2.5" ry="2.5" style="stroke:#181818;stroke-width:0.5;" width="65" x="1040" y="5"/><text fill="#000000" font-family="sans-serif" font-size="14" lengthAdjust="spacing" textLength="51" x="1047" y="24.9951">History</text><rect fill="#E2E2F0" height="30.2969" rx="2.5" ry="2.5" style="stroke:#181818;stroke-width:0.5;" width="65" x="1040" y="1003.2813"/><text fill="#000000" font-family="sans-serif" font-size="14" lengthAdjust="spacing" textLength="51" x="1047" y="1023.2764">History</text><rect fill="#E2E2F0" height="30.2969" rx="2.5" ry="2.5" style="stroke:#181818;stroke-width:0.5;" width="91" x="1119" y="5"/><text fill="#000000" font-family="sans-serif" font-size="14" lengthAdjust="spacing" textLength="77" x="1126" y="24.9951">NavHistory</text><rect fill="#E2E2F0" height="30.2969" rx="2.5" ry="2.5" style="stroke:#181818;stroke-width:0.5;" width="91" x="1119" y="1003.2813"/><text fill="#000000" font-family="sans-serif" font-size="14" lengthAdjust="spacing" textLength="77" x="1126" y="1023.2764">NavHistory</text><rect fill="#E2E2F0" height="30.2969" rx="2.5" ry="2.5" style="stroke:#181818;stroke-width:0.5;" width="135" x="1220" y="5"/><text fill="#000000" font-family="sans-serif" font-size="14" lengthAdjust="spacing" textLength="121" x="1227" y="24.9951">ResponseHistory</text><rect fill="#E2E2F0" height="30.2969" rx="2.5" ry="2.5" style="stroke:#181818;stroke-width:0.5;" width="135" x="1220" y="1003.2813"/><text fill="#000000" font-family="sans-serif" font-size="14" lengthAdjust="spacing" textLength="121" x="1227" y="1023.2764">ResponseHistory</text><rect fill="#E2E2F0" height="30.2969" rx="2.5" ry="2.5" style="stroke:#181818;stroke-width:0.5;" width="98" x="1365" y="5"/><text fill="#000000" font-family="sans-serif" font-size="14" lengthAdjust="spacing" textLength="84" x="1372" y="24.9951">SiteTracker</text><rect fill="#E2E2F0" height="30.2969" rx="2.5" ry="2.5" style="stroke:#181818;stroke-width:0.5;" width="98" x="1365" y="1003.2813"/><text fill="#000000" font-family="sans-serif" font-size="14" lengthAdjust="spacing" textLength="84" x="1372" y="1023.2764">SiteTracker</text><rect fill="#E2E2F0" height="30.2969" rx="2.5" ry="2.5" style="stroke:#181818;stroke-width:0.5;" width="47" x="1492.5" y="5"/><text fill="#000000" font-family="sans-serif" font-size="14" lengthAdjust="spacing" textLength="33" x="1499.5" y="24.9951">Inlet</text><rect fill="#E2E2F0" height="30.2969" rx="2.5" ry="2.5" style="stroke:#181818;stroke-width:0.5;" width="47" x="1492.5" y="1003.2813"/><text fill="#000000" font-family="sans-serif" font-size="14" lengthAdjust="spacing" textLength="33" x="1499.5" y="1023.2764">Inlet</text><rect fill="#E2E2F0" height="30.2969" rx="2.5" ry="2.5" style="stroke:#181818;stroke-width:0.5;" width="43" x="1549.5" y="5"/><text fill="#000000" font-family="sans-serif" font-size="14" lengthAdjust="spacing" textLength="29" x="1556.5" y="24.9951">Site</text><rect fill="#E2E2F0" height="30.2969" rx="2.5" ry="2.5" style="stroke:#181818;stroke-width:0.5;" width="43" x="1549.5" y="1003.2813"/><text fill="#000000" font-family="sans-serif" font-size="14" lengthAdjust="spacing" textLength="29" x="1556.5" y="1023.2764">Site</text><rect fill="#ABC4C3" height="918.8516" style="stroke:#181818;stroke-width:1.0;" width="10" x="32.5" y="67.4297"/><rect fill="#ABC4C3" height="378.7266" style="stroke:#181818;stroke-width:1.0;" width="10" x="186.5" y="120.6953"/><rect fill="#ABC4C3" height="143.3984" style="stroke:#181818;stroke-width:1.0;" width="10" x="186.5" y="528.5547"/><rect fill="#ABC4C3" height="264.1953" style="stroke:#181818;stroke-width:1.0;" width="10" x="186.5" y="722.0859"/><rect fill="#ABC4C3" height="320.4609" style="stroke:#181818;stroke-width:1.0;" width="10" x="351.5" y="149.8281"/><rect fill="#ABC4C3" height="100.2656" style="stroke:#181818;stroke-width:1.0;" width="10" x="351.5" y="557.6875"/><rect fill="#ABC4C3" height="262.1953" style="stroke:#181818;stroke-width:1.0;" width="10" x="497" y="178.9609"/><rect fill="#ABC4C3" height="29.1328" style="stroke:#181818;stroke-width:1.0;" width="10" x="637" y="178.9609"/><rect fill="#ABC4C3" height="29.1328" style="stroke:#181818;stroke-width:1.0;" width="10" x="709" y="237.2266"/><rect fill="#ABC4C3" height="29.1328" style="stroke:#181818;stroke-width:1.0;" width="10" x="773.5" y="295.4922"/><rect fill="#ABC4C3" height="29.1328" style="stroke:#181818;stroke-width:1.0;" width="10" x="860" y="353.7578"/><rect fill="#ABC4C3" height="29.1328" style="stroke:#181818;stroke-width:1.0;" width="10" x="972" y="412.0234"/><rect fill="#ABC4C3" height="86.2656" style="stroke:#181818;stroke-width:1.0;" width="10" x="1067.5" y="557.6875"/><rect fill="#ABC4C3" height="14" style="stroke:#181818;stroke-width:1.0;" width="10" x="1159.5" y="586.8203"/><rect fill="#ABC4C3" height="14" style="stroke:#181818;stroke-width:1.0;" width="10" x="1282.5" y="629.9531"/><rect fill="#ABC4C3" height="176.7969" style="stroke:#181818;stroke-width:1.0;" width="10" x="1409" y="751.2188"/><rect fill="#ABC4C3" height="29.1328" style="stroke:#181818;stroke-width:1.0;" width="10" x="1409" y="957.1484"/><rect fill="#ABC4C3" height="29.1328" style="stroke:#181818;stroke-width:1.0;" width="10" x="1511" y="804.4844"/><rect fill="#ABC4C3" height="29.1328" style="stroke:#181818;stroke-width:1.0;" width="10" x="1566" y="862.75"/><polygon fill="#181818" points="179.5,63.4297,189.5,67.4297,179.5,71.4297,183.5,67.4297" style="stroke:#181818;stroke-width:1.0;"/><line style="stroke:#181818;stroke-width:1.0;" x1="42.5" x2="185.5" y1="67.4297" y2="67.4297"/><text fill="#000000" font-family="sans-serif" font-size="13" lengthAdjust="spacing" textLength="92" x="49.5" y="62.3638">takeDecision()</text><path d="M144,82.4297 L222,82.4297 L222,89.5625 L212,99.5625 L144,99.5625 L144,82.4297 " fill="#EEEEEE" style="stroke:#000000;stroke-width:1.5;"/><rect fill="none" height="597.5234" style="stroke:#000000;stroke-width:1.5;" width="1221" x="144" y="82.4297"/><text fill="#000000" font-family="sans-serif" font-size="13" font-weight="bold" lengthAdjust="spacing" textLength="33" x="159" y="95.4966">loop</text><polygon fill="#181818" points="344.5,116.6953,354.5,120.6953,344.5,124.6953,348.5,120.6953" style="stroke:#181818;stroke-width:1.0;"/><line style="stroke:#181818;stroke-width:1.0;" x1="196.5" x2="350.5" y1="120.6953" y2="120.6953"/><text fill="#000000" font-family="sans-serif" font-size="13" lengthAdjust="spacing" textLength="85" x="203.5" y="115.6294">getDecision()</text><polygon fill="#181818" points="490,145.8281,500,149.8281,490,153.8281,494,149.8281" style="stroke:#181818;stroke-width:1.0;"/><line style="stroke:#181818;stroke-width:1.0;" x1="361.5" x2="496" y1="149.8281" y2="149.8281"/><text fill="#000000" font-family="sans-serif" font-size="13" lengthAdjust="spacing" textLength="79" x="368.5" y="144.7622">nextAction()</text><polygon fill="#181818" points="625,174.9609,635,178.9609,625,182.9609,629,178.9609" style="stroke:#181818;stroke-width:1.0;"/><line style="stroke:#181818;stroke-width:1.0;" x1="507" x2="631" y1="178.9609" y2="178.9609"/><text fill="#000000" font-family="sans-serif" font-size="13" lengthAdjust="spacing" textLength="116" x="514" y="173.895">performDecision()</text><polygon fill="#181818" points="518,204.0938,508,208.0938,518,212.0938,514,208.0938" style="stroke:#181818;stroke-width:1.0;"/><line style="stroke:#181818;stroke-width:1.0;stroke-dasharray:2.0,2.0;" x1="512" x2="641" y1="208.0938" y2="208.0938"/><text fill="#000000" font-family="sans-serif" font-size="13" lengthAdjust="spacing" textLength="72" x="524" y="203.0278">JSONObject</text><polygon fill="#181818" points="697,233.2266,707,237.2266,697,241.2266,701,237.2266" style="stroke:#181818;stroke-width:1.0;"/><line style="stroke:#181818;stroke-width:1.0;" x1="507" x2="703" y1="237.2266" y2="237.2266"/><text fill="#000000" font-family="sans-serif" font-size="13" lengthAdjust="spacing" textLength="91" x="514" y="232.1606">performSlice()</text><polygon fill="#181818" points="518,262.3594,508,266.3594,518,270.3594,514,266.3594" style="stroke:#181818;stroke-width:1.0;"/><line style="stroke:#181818;stroke-width:1.0;stroke-dasharray:2.0,2.0;" x1="512" x2="713" y1="266.3594" y2="266.3594"/><text fill="#000000" font-family="sans-serif" font-size="13" lengthAdjust="spacing" textLength="72" x="524" y="261.2935">JSONObject</text><polygon fill="#181818" points="761.5,291.4922,771.5,295.4922,761.5,299.4922,765.5,295.4922" style="stroke:#181818;stroke-width:1.0;"/><line style="stroke:#181818;stroke-width:1.0;" x1="507" x2="767.5" y1="295.4922" y2="295.4922"/><text fill="#000000" font-family="sans-serif" font-size="13" lengthAdjust="spacing" textLength="100" x="514" y="290.4263">performUTurn()</text><polygon fill="#181818" points="518,320.625,508,324.625,518,328.625,514,324.625" style="stroke:#181818;stroke-width:1.0;"/><line style="stroke:#181818;stroke-width:1.0;stroke-dasharray:2.0,2.0;" x1="512" x2="777.5" y1="324.625" y2="324.625"/><text fill="#000000" font-family="sans-serif" font-size="13" lengthAdjust="spacing" textLength="72" x="524" y="319.5591">JSONObject</text><polygon fill="#181818" points="848,349.7578,858,353.7578,848,357.7578,852,353.7578" style="stroke:#181818;stroke-width:1.0;"/><line style="stroke:#181818;stroke-width:1.0;" x1="507" x2="854" y1="353.7578" y2="353.7578"/><text fill="#000000" font-family="sans-serif" font-size="13" lengthAdjust="spacing" textLength="83" x="514" y="348.6919">specialTurn()</text><polygon fill="#181818" points="518,378.8906,508,382.8906,518,386.8906,514,382.8906" style="stroke:#181818;stroke-width:1.0;"/><line style="stroke:#181818;stroke-width:1.0;stroke-dasharray:2.0,2.0;" x1="512" x2="864" y1="382.8906" y2="382.8906"/><text fill="#000000" font-family="sans-serif" font-size="13" lengthAdjust="spacing" textLength="72" x="524" y="377.8247">JSONObject</text><polygon fill="#181818" points="960,408.0234,970,412.0234,960,416.0234,964,412.0234" style="stroke:#181818;stroke-width:1.0;"/><line style="stroke:#181818;stroke-width:1.0;" x1="507" x2="966" y1="412.0234" y2="412.0234"/><text fill="#000000" font-family="sans-serif" font-size="13" lengthAdjust="spacing" textLength="91" x="514" y="406.9575">specialTurn2()</text><polygon fill="#181818" points="513,437.1563,503,441.1563,513,445.1563,509,441.1563" style="stroke:#181818;stroke-width:1.0;"/><line style="stroke:#181818;stroke-width:1.0;stroke-dasharray:2.0,2.0;" x1="507" x2="976" y1="441.1563" y2="441.1563"/><text fill="#000000" font-family="sans-serif" font-size="13" lengthAdjust="spacing" textLength="72" x="519" y="436.0903">JSONObject</text><polygon fill="#181818" points="367.5,466.2891,357.5,470.2891,367.5,474.2891,363.5,470.2891" style="stroke:#181818;stroke-width:1.0;"/><line style="stroke:#181818;stroke-width:1.0;stroke-dasharray:2.0,2.0;" x1="361.5" x2="501" y1="470.2891" y2="470.2891"/><text fill="#000000" font-family="sans-serif" font-size="13" lengthAdjust="spacing" textLength="98" x="373.5" y="465.2231">JSON Response</text><polygon fill="#181818" points="202.5,495.4219,192.5,499.4219,202.5,503.4219,198.5,499.4219" style="stroke:#181818;stroke-width:1.0;"/><line style="stroke:#181818;stroke-width:1.0;stroke-dasharray:2.0,2.0;" x1="196.5" x2="355.5" y1="499.4219" y2="499.4219"/><text fill="#000000" font-family="sans-serif" font-size="13" lengthAdjust="spacing" textLength="98" x="208.5" y="494.356">JSON Response</text><polygon fill="#181818" points="344.5,524.5547,354.5,528.5547,344.5,532.5547,348.5,528.5547" style="stroke:#181818;stroke-width:1.0;"/><line style="stroke:#181818;stroke-width:1.0;" x1="196.5" x2="350.5" y1="528.5547" y2="528.5547"/><text fill="#000000" font-family="sans-serif" font-size="13" lengthAdjust="spacing" textLength="141" x="203.5" y="523.4888">acknowledgeResults()</text><polygon fill="#181818" points="1055.5,553.6875,1065.5,557.6875,1055.5,561.6875,1059.5,557.6875" style="stroke:#181818;stroke-width:1.0;"/><line style="stroke:#181818;stroke-width:1.0;" x1="361.5" x2="1061.5" y1="557.6875" y2="557.6875"/><text fill="#000000" font-family="sans-serif" font-size="13" lengthAdjust="spacing" textLength="63" x="368.5" y="552.6216">addItem()</text><polygon fill="#181818" points="1147.5,582.8203,1157.5,586.8203,1147.5,590.8203,1151.5,586.8203" style="stroke:#181818;stroke-width:1.0;"/><line style="stroke:#181818;stroke-width:1.0;" x1="1077.5" x2="1153.5" y1="586.8203" y2="586.8203"/><text fill="#000000" font-family="sans-serif" font-size="13" lengthAdjust="spacing" textLength="63" x="1084.5" y="581.7544">addItem()</text><polygon fill="#181818" points="1088.5,596.8203,1078.5,600.8203,1088.5,604.8203,1084.5,600.8203" style="stroke:#181818;stroke-width:1.0;"/><line style="stroke:#181818;stroke-width:1.0;stroke-dasharray:2.0,2.0;" x1="1082.5" x2="1163.5" y1="600.8203" y2="600.8203"/><polygon fill="#181818" points="1270.5,625.9531,1280.5,629.9531,1270.5,633.9531,1274.5,629.9531" style="stroke:#181818;stroke-width:1.0;"/><line style="stroke:#181818;stroke-width:1.0;" x1="1077.5" x2="1276.5" y1="629.9531" y2="629.9531"/><text fill="#000000" font-family="sans-serif" font-size="13" lengthAdjust="spacing" textLength="63" x="1084.5" y="624.8872">addItem()</text><polygon fill="#181818" points="1083.5,639.9531,1073.5,643.9531,1083.5,647.9531,1079.5,643.9531" style="stroke:#181818;stroke-width:1.0;"/><line style="stroke:#181818;stroke-width:1.0;stroke-dasharray:2.0,2.0;" x1="1077.5" x2="1286.5" y1="643.9531" y2="643.9531"/><polygon fill="#181818" points="367.5,653.9531,357.5,657.9531,367.5,661.9531,363.5,657.9531" style="stroke:#181818;stroke-width:1.0;"/><line style="stroke:#181818;stroke-width:1.0;stroke-dasharray:2.0,2.0;" x1="361.5" x2="1071.5" y1="657.9531" y2="657.9531"/><polygon fill="#181818" points="202.5,667.9531,192.5,671.9531,202.5,675.9531,198.5,671.9531" style="stroke:#181818;stroke-width:1.0;"/><line style="stroke:#181818;stroke-width:1.0;stroke-dasharray:2.0,2.0;" x1="196.5" x2="355.5" y1="671.9531" y2="671.9531"/><polygon fill="#181818" points="53.5,688.9531,43.5,692.9531,53.5,696.9531,49.5,692.9531" style="stroke:#181818;stroke-width:1.0;"/><line style="stroke:#181818;stroke-width:1.0;stroke-dasharray:2.0,2.0;" x1="47.5" x2="190.5" y1="692.9531" y2="692.9531"/><polygon fill="#181818" points="174.5,718.0859,184.5,722.0859,174.5,726.0859,178.5,722.0859" style="stroke:#181818;stroke-width:1.0;"/><line style="stroke:#181818;stroke-width:1.0;" x1="42.5" x2="180.5" y1="722.0859" y2="722.0859"/><text fill="#000000" font-family="sans-serif" font-size="13" lengthAdjust="spacing" textLength="125" x="49.5" y="717.02">deliverFinalReport()</text><polygon fill="#181818" points="1397,747.2188,1407,751.2188,1397,755.2188,1401,751.2188" style="stroke:#181818;stroke-width:1.0;"/><line style="stroke:#181818;stroke-width:1.0;" x1="196.5" x2="1403" y1="751.2188" y2="751.2188"/><text fill="#000000" font-family="sans-serif" font-size="13" lengthAdjust="spacing" textLength="137" x="203.5" y="746.1528">findPointsOfInterest()</text><path d="M1355,766.2188 L1433,766.2188 L1433,773.3516 L1423,783.3516 L1355,783.3516 L1355,766.2188 " fill="#EEEEEE" style="stroke:#000000;stroke-width:1.5;"/><rect fill="none" height="133.6641" style="stroke:#000000;stroke-width:1.5;" width="247.5" x="1355" y="766.2188"/><text fill="#000000" font-family="sans-serif" font-size="13" font-weight="bold" lengthAdjust="spacing" textLength="33" x="1370" y="779.2856">loop</text><polygon fill="#181818" points="1499,800.4844,1509,804.4844,1499,808.4844,1503,804.4844" style="stroke:#181818;stroke-width:1.0;"/><line style="stroke:#181818;stroke-width:1.0;" x1="1419" x2="1505" y1="804.4844" y2="804.4844"/><text fill="#000000" font-family="sans-serif" font-size="13" lengthAdjust="spacing" textLength="61" x="1426" y="799.4185">addInlet()</text><polygon fill="#181818" points="1430,829.6172,1420,833.6172,1430,837.6172,1426,833.6172" style="stroke:#181818;stroke-width:1.0;"/><line style="stroke:#181818;stroke-width:1.0;stroke-dasharray:2.0,2.0;" x1="1424" x2="1515" y1="833.6172" y2="833.6172"/><text fill="#000000" font-family="sans-serif" font-size="13" lengthAdjust="spacing" textLength="68" x="1436" y="828.5513">new Inlet()</text><polygon fill="#181818" points="1554,858.75,1564,862.75,1554,866.75,1558,862.75" style="stroke:#181818;stroke-width:1.0;"/><line style="stroke:#181818;stroke-width:1.0;" x1="1419" x2="1560" y1="862.75" y2="862.75"/><text fill="#000000" font-family="sans-serif" font-size="13" lengthAdjust="spacing" textLength="58" x="1426" y="857.6841">addSite()</text><polygon fill="#181818" points="1430,887.8828,1420,891.8828,1430,895.8828,1426,891.8828" style="stroke:#181818;stroke-width:1.0;"/><line style="stroke:#181818;stroke-width:1.0;stroke-dasharray:2.0,2.0;" x1="1424" x2="1570" y1="891.8828" y2="891.8828"/><text fill="#000000" font-family="sans-serif" font-size="13" lengthAdjust="spacing" textLength="65" x="1436" y="886.8169">new Site()</text><polygon fill="#181818" points="207.5,924.0156,197.5,928.0156,207.5,932.0156,203.5,928.0156" style="stroke:#181818;stroke-width:1.0;"/><line style="stroke:#181818;stroke-width:1.0;stroke-dasharray:2.0,2.0;" x1="201.5" x2="1413" y1="928.0156" y2="928.0156"/><text fill="#000000" font-family="sans-serif" font-size="13" lengthAdjust="spacing" textLength="101" x="213.5" y="922.9497">List&lt;Inlet&gt;, Site</text><polygon fill="#181818" points="1397,953.1484,1407,957.1484,1397,961.1484,1401,957.1484" style="stroke:#181818;stroke-width:1.0;"/><line style="stroke:#181818;stroke-width:1.0;" x1="196.5" x2="1403" y1="957.1484" y2="957.1484"/><text fill="#000000" font-family="sans-serif" font-size="13" lengthAdjust="spacing" textLength="105" x="203.5" y="952.0825">getClosestInlet()</text><polygon fill="#181818" points="202.5,982.2813,192.5,986.2813,202.5,990.2813,198.5,986.2813" style="stroke:#181818;stroke-width:1.0;"/><line style="stroke:#181818;stroke-width:1.0;stroke-dasharray:2.0,2.0;" x1="196.5" x2="1413" y1="986.2813" y2="986.2813"/><text fill="#000000" font-family="sans-serif" font-size="13" lengthAdjust="spacing" textLength="151" x="208.5" y="981.2153">String id of Closest Inlet</text><!--SRC=[dLNDRXiX4BxlKo3rqaZrPTjJ54MgcbHrrSQLdJu0WR55Gs05s4dUli320hlinktDpCptm-oCsHw508LMr-ZsfUDIWRf41Z_23H2ccHJlBnfC33jX0sZRrxx33-GJ-TXmARiceX83DXRs4mjyS5m7C3Mg0HR9fbZ7kDOS2xeZs0bV8W4lvZCnLQu26bXHKn0uHcU6EguEr5wgfvgv4XGT3kb0CIJAyglLAebytstkDWz_W9Y6mfXWQcx76Scy-MDkhCyl24U2kcwVdSh-lZygCQZwKwxg0mkY0LxNzCdAJJlR0ynxf4w7uhOfl7Jbd6dctgbaqKbRM6bdlBJdcMdFSDFcyOAjjWzEOBGGJW5jGNTIQCZ9fl2qgOwdjgflaEKKCykEoQEGpnpe0IpFaHlz7pl_ZMaZrQjbetHjuEcyLKyr0JyaujbIt-7J4djAJy2kPocTDoUBPagnZKjoevggvgWc5rv8nT3C45KG_pulrG41GPlmIYIKZSTWySnGuEm4wYiJc6-XaygSCIrXQPc1UsN7pV7icQ2_91D6R_PhOK21BfYoulBjoXFkiH4SJF-btA_YHN210PpZ_5BsG07FA2BplNQXiPOxUYdtOsnsLgX7EPq0o_zMRCJtl_XkHQD-sEz-vUrSV-ZhH_XGsSptsZxdNxZKjiEJ7jNQFEzbPnGJ1yGeadiKA4EhPapLvYrV1pzXVm40]--></g></svg>